<svg xmlns="http://www.w3.org/2000/svg" width="26" height="26" viewBox="0 0 26 26">
  <g id="behance_icon" transform="translate(-3.723 -5.101)" opacity="0.8">
    <path id="Path_12" data-name="Path 12" d="M36.378,27.257a1.994,1.994,0,0,0-1.962,1.719h3.662A1.659,1.659,0,0,0,36.378,27.257Z" transform="translate(-14.561 -10.482)"/>
    <path id="Path_13" data-name="Path 13" d="M19.986,30.425H16.739v2.981h2.874c.049,0,.122,0,.208,0,.462-.011,1.339-.145,1.339-1.449C21.16,30.409,19.986,30.425,19.986,30.425Z" transform="translate(-6.183 -12.002)"/>
    <path id="Path_14" data-name="Path 14" d="M16.724,5.1a13,13,0,1,0,13,13A13,13,0,0,0,16.724,5.1Zm2.736,7.988h4.475v1.336H19.46ZM17.2,20.1c0,3.311-3.445,3.2-3.445,3.2H8.108V12.45h5.645a2.771,2.771,0,0,1,3.068,2.888A1.883,1.883,0,0,1,15.166,17.4C17.348,17.4,17.2,20.1,17.2,20.1Zm8.372-.177H19.949a1.765,1.765,0,0,0,1.909,1.888c1.8,0,1.74-1.167,1.74-1.167h1.91c0,3.1-3.713,2.885-3.713,2.885a3.848,3.848,0,0,1-4.167-4.147s0-4.167,4.167-4.167C26.184,15.21,25.57,19.918,25.57,19.918Z" transform="translate(0 0)"/>
    <path id="Path_15" data-name="Path 15" d="M20.774,23.833c0-1.16-.789-1.16-.789-1.16H16.739v2.488h3.045C20.31,25.161,20.774,24.992,20.774,23.833Z" transform="translate(-6.179 -8.322)"/>
  </g>
</svg>
