<svg xmlns="http://www.w3.org/2000/svg" width="26" height="26" viewBox="0 0 26 26">
  <g id="instagram_icon" transform="translate(-3.7 -5.2)" opacity="0.8">
    <circle id="Ellipse_1" data-name="Ellipse 1" cx="2.386" cy="2.386" r="2.386" transform="translate(14.209 15.919)"/>
    <path id="Path_1" data-name="Path 1" d="M26.14,19.2H20.174a2.964,2.964,0,0,0-2.115.759,2.964,2.964,0,0,0-.759,2.115V28.04a2.989,2.989,0,0,0,.813,2.169,3.057,3.057,0,0,0,2.115.759H26.14a2.964,2.964,0,0,0,2.115-.759,2.778,2.778,0,0,0,.813-2.115V22.128a3.057,3.057,0,0,0-.759-2.115A2.9,2.9,0,0,0,26.14,19.2Zm-2.983,9.545a3.688,3.688,0,1,1,0-7.375,3.688,3.688,0,1,1,0,7.375Zm3.85-6.67a.868.868,0,1,1,.868-.868A.857.857,0,0,1,27.007,22.074Z" transform="translate(-6.562 -6.755)"/>
    <path id="Path_2" data-name="Path 2" d="M16.7,5.2a13,13,0,1,0,13,13A12.99,12.99,0,0,0,16.7,5.2Zm6.923,16.065a4.189,4.189,0,0,1-1.163,3.012,4.112,4.112,0,0,1-2.959,1.11h-5.76a4.112,4.112,0,0,1-2.959-1.11,3.981,3.981,0,0,1-1.163-3.012V15.452a3.911,3.911,0,0,1,4.122-4.122h5.813a3.9,3.9,0,0,1,4.069,4.122v5.813Z" transform="translate(0)"/>
  </g>
</svg>
