<svg width="24" height="24" viewBox="0 0 24 24" fill="none" xmlns="http://www.w3.org/2000/svg">
<path fill-rule="evenodd" clip-rule="evenodd" d="M9.5626 12.7947C9.26737 12.5707 8.87361 12.4593 8.38924 12.4593H5.94287V15.2737H8.34414C8.56625 15.2737 8.77693 15.254 8.97515 15.2096C9.17638 15.1656 9.35488 15.0959 9.50537 14.9928C9.65585 14.8937 9.7805 14.7579 9.87112 14.5851C9.96205 14.4138 10.0056 14.1913 10.0056 13.9226C10.0056 13.3958 9.85745 13.0219 9.5626 12.7947Z" fill="black"/>
<path fill-rule="evenodd" clip-rule="evenodd" d="M9.21019 10.6367C9.46902 10.4478 9.59451 10.1355 9.59451 9.70724C9.59451 9.4694 9.55284 9.27286 9.46902 9.12037C9.38225 8.96783 9.26742 8.84846 9.12226 8.76491C8.97826 8.67793 8.81564 8.61785 8.62691 8.58546C8.44161 8.54922 8.24719 8.53503 8.04817 8.53503H5.94287V10.9232H8.21986C8.61863 10.9232 8.94873 10.8286 9.21019 10.6367Z" fill="black"/>
<path fill-rule="evenodd" clip-rule="evenodd" d="M5 0C2.23858 0 0 2.23858 0 5V19C0 21.7614 2.23858 24 5 24H19C21.7614 24 24 21.7614 24 19V5C24 2.23858 21.7614 0 19 0H5ZM14.539 7.47967H18.6818V8.48819H14.539V7.47967ZM11.9528 15.3867C11.7527 15.7667 11.4802 16.0746 11.1444 16.3122C10.806 16.552 10.4171 16.7278 9.98163 16.8423C9.5511 16.9567 9.10391 17.0143 8.64607 17.0143H3.69231V6.79406H8.51082C8.99974 6.79406 9.44086 6.83631 9.84411 6.92371C10.2451 7.00879 10.5873 7.15073 10.8765 7.34532C11.1611 7.53996 11.384 7.79879 11.5435 8.12492C11.6992 8.44615 11.7774 8.84846 11.7774 9.32408C11.7774 9.83858 11.6606 10.2683 11.4272 10.6119C11.1918 10.9548 10.8462 11.2363 10.3842 11.4548C11.0133 11.6355 11.4791 11.9539 11.788 12.4066C12.0984 12.8624 12.2503 13.4077 12.2503 14.0471C12.2503 14.5653 12.151 15.0116 11.9528 15.3867ZM20.2948 13.8035H14.9548C14.9548 14.3885 15.1526 14.9424 15.4581 15.2397C15.7624 15.537 16.2024 15.6865 16.7724 15.6865C17.1825 15.6865 17.5368 15.5829 17.834 15.3763C18.1284 15.17 18.3077 14.9494 18.377 14.7203H20.167C19.8794 15.6111 19.4428 16.247 18.8474 16.6298C18.2588 17.0143 17.5409 17.2059 16.7046 17.2059C16.1217 17.2059 15.5972 17.1115 15.1261 16.9256C14.6554 16.7374 14.262 16.4737 13.9311 16.13C13.6086 15.7845 13.3581 15.3764 13.1796 14.8967C13.003 14.4197 12.9139 13.8916 12.9139 13.3193C12.9139 12.766 13.0064 12.249 13.1871 11.7713C13.3717 11.2919 13.6268 10.8782 13.9622 10.5313C14.2984 10.1824 14.697 9.90704 15.1613 9.70602C15.6256 9.50569 16.1375 9.40489 16.7046 9.40489C17.3306 9.40489 17.8791 9.52536 18.349 9.7708C18.8174 10.0128 19.2014 10.3408 19.503 10.7515C19.8047 11.1614 20.0192 11.6302 20.1534 12.156C20.2864 12.681 20.3331 13.2294 20.2948 13.8035Z" fill="black"/>
<path fill-rule="evenodd" clip-rule="evenodd" d="M16.6438 10.9397C16.319 10.9397 16.0503 10.9943 15.8351 11.1057C15.6247 11.2156 15.4523 11.3524 15.3204 11.5135C15.1893 11.6772 15.0998 11.85 15.0479 12.0348C14.9956 12.2148 14.9646 12.3782 14.9551 12.5226H18.2622C18.2136 12.0043 18.0363 11.6211 17.7937 11.3517C17.5522 11.0843 17.1429 10.9397 16.6438 10.9397Z" fill="black"/>
</svg>
