<svg width="24" height="24" viewBox="0 0 24 24" fill="none" xmlns="http://www.w3.org/2000/svg">
<path d="M9.25721 6.22858C7.46673 7.06667 6.15245 8.70477 5.7334 10.6857C5.90483 10.6857 8.57149 10.7238 11.6382 9.90477C10.5334 7.94286 9.35245 6.34286 9.25721 6.22858Z" fill="black"/>
<path d="M12.1715 10.8953C8.87629 11.8857 5.71438 11.8095 5.6001 11.8095C5.6001 11.8667 5.6001 11.9429 5.6001 12.0191C5.6001 13.6572 6.22867 15.1619 7.23819 16.2857C7.23819 16.2857 8.99057 13.1619 12.4382 12.0572C12.5144 12.0381 12.6096 12 12.6858 11.981C12.5334 11.6191 12.3429 11.2572 12.1715 10.8953Z" fill="black"/>
<path d="M11.9999 5.59998C11.4856 5.59998 10.9713 5.65712 10.4951 5.7714C10.5904 5.90474 11.7904 7.48569 12.8951 9.50474C15.2951 8.6095 16.2094 7.21902 16.2285 7.19998C15.1046 6.2095 13.6189 5.59998 11.9999 5.59998Z" fill="black"/>
<path d="M14.3237 12.7428C15.1618 15.0476 15.5047 16.9143 15.5618 17.3143C16.9904 16.3428 18.019 14.8 18.3047 13.0285C18.1904 12.9714 16.3999 12.4 14.3237 12.7428Z" fill="black"/>
<path d="M17.981 0H6C2.70476 0 0 2.70476 0 6.01905V18C0 21.2952 2.70476 24 6 24H17.981C21.2952 24 24 21.2952 24 17.981V6.01905C24 2.70476 21.2952 0 17.981 0ZM19.3333 13.5048C19.2381 13.981 19.0857 14.4571 18.8952 14.9143C18.7048 15.3524 18.4762 15.7905 18.2095 16.1905C17.9429 16.5905 17.6381 16.9524 17.2952 17.2952C16.9524 17.6381 16.5905 17.9429 16.1905 18.2095C15.7905 18.4762 15.3714 18.7048 14.9143 18.8952C14.4571 19.0857 13.981 19.2381 13.5048 19.3333C13.0095 19.4286 12.5143 19.4857 12 19.4857C11.4857 19.4857 10.9905 19.4286 10.4952 19.3333C10.019 19.2381 9.54286 19.0857 9.08571 18.8952C8.64762 18.7048 8.20952 18.4762 7.80952 18.2095C7.40952 17.9429 7.04762 17.6381 6.70476 17.2952C6.36191 16.9524 6.05714 16.5905 5.79048 16.1905C5.52381 15.7905 5.29524 15.3714 5.10476 14.9143C4.91429 14.4571 4.7619 13.981 4.66667 13.5048C4.57143 13.0095 4.51429 12.4952 4.51429 12C4.51429 11.4857 4.57143 10.9905 4.66667 10.4952C4.7619 10.019 4.91429 9.54286 5.10476 9.08571C5.29524 8.64762 5.52381 8.20952 5.79048 7.80952C6.05714 7.40952 6.36191 7.04762 6.70476 6.70476C7.04762 6.36191 7.40952 6.05714 7.80952 5.79048C8.20952 5.52381 8.62857 5.29524 9.08571 5.10476C9.54286 4.91429 10.019 4.7619 10.4952 4.66667C10.9905 4.57143 11.5048 4.51429 12 4.51429C12.5143 4.51429 13.0095 4.57143 13.5048 4.66667C13.981 4.7619 14.4571 4.91429 14.9143 5.10476C15.3524 5.29524 15.7905 5.52381 16.1905 5.79048C16.5905 6.05714 16.9524 6.36191 17.2952 6.70476C17.6381 7.04762 17.9429 7.40952 18.2095 7.80952C18.4762 8.20952 18.7048 8.62857 18.8952 9.08571C19.0857 9.54286 19.2381 10.019 19.3333 10.4952C19.4286 10.9905 19.4857 11.4857 19.4857 12C19.4857 12.5143 19.4286 13.0095 19.3333 13.5048Z" fill="black"/>
<path d="M13.1238 13.0286C13.1238 13.0286 13.1047 13.0476 13.0857 13.0476C9.31427 14.3619 8.07617 17.0095 8.07617 17.0476C9.16189 17.8857 10.5143 18.4 12 18.4C12.8762 18.4 13.7333 18.2095 14.4952 17.8857C14.4 17.3333 14.0381 15.3714 13.1238 13.0286Z" fill="black"/>
<path d="M16.9335 7.94287C16.9335 7.96192 15.9049 9.44763 13.3716 10.4762C13.524 10.781 13.6573 11.0857 13.7906 11.4095C13.8287 11.5238 13.8859 11.6381 13.924 11.7333C16.1144 11.4476 18.2859 11.9238 18.3811 11.9429C18.3621 10.4191 17.8287 9.02859 16.9335 7.94287Z" fill="black"/>
</svg>
