<svg width="24" height="24" viewBox="0 0 24 24" fill="none" xmlns="http://www.w3.org/2000/svg">
<path d="M11.214 0C10.4479 0.0837257 9.69451 0.258975 8.97005 0.522C5.46205 1.787 3.43805 4.448 3.16705 8.234C2.90605 11.881 4.55505 14.594 7.61705 16.47C8.39405 16.95 9.30005 17.212 10.181 17.579C9.37005 18.713 8.51505 19.89 7.65105 21.103C9.08205 22.08 10.469 23.032 11.883 24C12.013 23.834 12.093 23.73 12.171 23.625C13.549 21.723 14.954 19.83 16.315 17.91C17.501 16.226 18.705 14.543 19.788 12.789C20.861 11.053 21.053 9.099 20.695 7.109C20.146 4.049 17.727 1.183 14.414 0.259C13.726 1.422 12.735 3.112 12.424 3.625C12.929 3.796 13.451 3.905 13.902 4.135C15.692 5.049 16.719 6.497 16.729 8.538C16.742 10.661 15.722 12.238 13.822 13.086C10.612 14.528 7.64605 12.422 7.00005 9.913C6.71405 8.821 6.73705 7.716 7.27105 6.704C7.80105 5.681 8.40005 4.697 8.99505 3.701L11.214 0Z" fill="black"/>
</svg>
