<svg xmlns="http://www.w3.org/2000/svg" width="1426.862" height="1080" viewBox="0 0 1426.862 1080">
  <g id="Backgroundsvg" transform="translate(0 0)">
    <path id="Path_22" data-name="Path 22" d="M911.963-278.253c-1.055,1.055-.989,3.627.132,4.023,1.319.528,2.506-1.121,2.242-2.9S913.084-279.374,911.963-278.253Z" transform="translate(-211.026 278.861)" fill-rule="evenodd"/>
    <path id="Path_23" data-name="Path 23" d="M1737.15-276.358c.066,1.781.066,1.781.989.593.923-1.253.791-2.374-.4-2.374C1737.414-278.139,1737.15-277.348,1737.15-276.358Z" transform="translate(-492.297 278.615)" fill-rule="evenodd"/>
    <path id="Path_24" data-name="Path 24" d="M789.027-173.628c-1.187.462-1.055,2.572.2,4.089.923,1.055,1.451,1.121,2.968.593,2.242-.791,2.44-1.978.594-3.825C791.467-174.09,790.544-174.288,789.027-173.628Z" transform="translate(-169.137 243.149)" fill-rule="evenodd"/>
    <path id="Path_25" data-name="Path 25" d="M1743.1-165.255c-.989,1.253.659,3.5,2.176,2.9s2.11-2.44.989-3.165C1744.942-166.31,1743.953-166.244,1743.1-165.255Z" transform="translate(-494.219 240.447)" fill-rule="evenodd"/>
    <path id="Path_26" data-name="Path 26" d="M749.036-155.189A2.558,2.558,0,0,1,747.189-154c-2.11.264-2.242,1.517-.264,2.374,1.385.659,1.846.594,2.9-.462a2.892,2.892,0,0,0,.923-2.638C750.355-156.31,749.563-156.508,749.036-155.189Z" transform="translate(-154.6 237.042)" fill-rule="evenodd"/>
    <path id="Path_27" data-name="Path 27" d="M817.446-152.926c-1.451,1.583-.791,3.759,1.187,3.957a2.545,2.545,0,0,0,1.978-.528.8.8,0,0,1,1.055-.33c.33.264.791-.066,1.055-.725.264-.725-.066-1.517-1.055-2.374C819.754-154.443,818.765-154.443,817.446-152.926Z" transform="translate(-178.827 236.362)" fill-rule="evenodd"/>
    <path id="Path_28" data-name="Path 28" d="M1953.342-153.222c-1.517.593-2.572,3.165-1.979,4.88.528,1.253,3.693,2.044,5.012,1.187.659-.4,1.055-1.583,1.055-3.165C1957.43-153.09,1955.914-154.211,1953.342-153.222Z" transform="translate(-565.189 236.195)" fill-rule="evenodd"/>
    <path id="Path_29" data-name="Path 29" d="M702.241-142.227c.791,2.242,2.968,3.165,3.561,1.583.462-1.121-1.912-3.5-3.429-3.5C701.713-144.139,701.647-143.743,702.241-142.227Z" transform="translate(-139.723 232.982)" fill-rule="evenodd"/>
    <path id="Path_30" data-name="Path 30" d="M1850.594-96.48a1.54,1.54,0,0,0,1.055.659c.4,0,.462-.33.264-.659a1.345,1.345,0,0,0-1.055-.659C1850.462-97.139,1850.4-96.875,1850.594-96.48Z" transform="translate(-530.893 216.976)" fill-rule="evenodd"/>
    <path id="Path_31" data-name="Path 31" d="M1893.457-82.82c-1.912,1.912-1.781,5.078.4,6.067,1.319.594,1.781.594,2.176-.066.462-.659.791-.659,1.979.066,1.319.725,1.583.725,2.44-.462,1.912-2.572-.659-6.924-4.089-6.924a4.863,4.863,0,0,0-2.9,1.319Z" transform="translate(-545.07 212.549)" fill-rule="evenodd"/>
    <path id="Path_32" data-name="Path 32" d="M1874.186-76.511c-1.055.4-.33,2.176.857,2.176a.9.9,0,0,0,.66-.264.9.9,0,0,0,.264-.659C1875.967-76.445,1875.242-76.906,1874.186-76.511Z" transform="translate(-538.79 209.998)" fill-rule="evenodd"/>
    <circle id="Ellipse_3" data-name="Ellipse 3" cx="0.659" cy="0.659" r="0.659" transform="translate(571.553 159.404)"/>
    <path id="Path_33" data-name="Path 33" d="M2005.949-30.7c-.594,1.055-.528,1.715.33,2.968.528.857,1.253,1.583,1.583,1.583.857,0,2.7-2.308,2.7-3.363a2.457,2.457,0,0,0-1.845-2.394,2.457,2.457,0,0,0-2.771,1.207Z" transform="translate(-583.703 194.789)" fill-rule="evenodd"/>
    <path id="Path_34" data-name="Path 34" d="M1980.613-11.051c-2.638,1.846-1.385,6.858,1.846,6.858,3.363,0,5.539-5.144,2.9-7.056C1983.779-12.37,1982.394-12.3,1980.613-11.051Z" transform="translate(-574.721 187.997)" fill-rule="evenodd"/>
    <path id="Path_35" data-name="Path 35" d="M-150.09,2.866c-1.253,1.517.2,4.286,2.242,4.286s2.7-1.715,1.385-3.693C-147.65,1.613-148.9,1.416-150.09,2.866Z" transform="translate(150.556 183.246)" fill-rule="evenodd"/>
    <path id="Path_36" data-name="Path 36" d="M1825.747,7.258c-.528.528.066,1.583.923,1.583.33,0,.594-.462.594-.989C1827.264,6.863,1826.472,6.533,1825.747,7.258Z" transform="translate(-522.4 181.557)" fill-rule="evenodd"/>
    <path id="Path_37" data-name="Path 37" d="M1906.473,21.866a1.616,1.616,0,0,0,1.253,2.374c.461,0,.4-.264-.2-.659-.857-.528-.791-.659.2-.659.659,0,1.121-.33.989-.791C1908.253,20.877,1906.934,20.745,1906.473,21.866Z" transform="translate(-549.908 176.71)" fill-rule="evenodd"/>
    <path id="Path_38" data-name="Path 38" d="M1995.041,26.805c-.857,1.055-.264,3.033.923,3.033a2.781,2.781,0,0,0,1.649-.989c.659-.791.659-1.187,0-1.978C1996.623,25.618,1996.03,25.618,1995.041,26.805Z" transform="translate(-579.982 175.068)" fill-rule="evenodd"/>
    <path id="Path_39" data-name="Path 39" d="M1890.484,30.18c-1.055.725-1.715,1.319-1.319,1.319.33,0,.264.33-.2.791-1.187,1.187-.923,3.429.594,5.342,1.121,1.517,1.781,1.715,4.682,1.649,4.155-.066,5.8-1.451,5.8-5.012,0-3.759-1.451-5.408-4.814-5.408a9.29,9.29,0,0,0-4.748,1.319Z" transform="translate(-543.745 174.067)" fill-rule="evenodd"/>
    <path id="Path_40" data-name="Path 40" d="M1972.807,62.878c-1.187.923-1.121.923.857.989,2.7,0,2.308,1.649-.462,1.846-3.429.264-4.946,1.253-6.529,4.221-1.78,3.5-1.385,7.32.857,9.166,1.187.989,1.649.989,3.429.264,1.978-.791,2.242-.725,3.561.791.989,1.121,1.847,1.517,2.836,1.319.791-.2,2.176-.528,3.033-.725,2.968-.659,4.682-4.089,4.682-9.232,0-2.836-.33-3.825-1.583-5.078-2.506-2.506-3.3-2.9-4.946-2.7-.857.132-1.385,0-1.121-.4.2-.33-.264-.791-1.121-1.055-1.978-.528-2.044-.528-3.5.594Z" transform="translate(-570.08 162.801)" fill-rule="evenodd"/>
    <path id="Path_41" data-name="Path 41" d="M1943.874,142.843a4.423,4.423,0,0,0-.725,2.572c0,1.385.4,1.912,1.583,2.242,3.1.725,4.023.132,4.023-2.7,0-2.506-.132-2.638-2.11-2.7a4.648,4.648,0,0,0-2.77.593Z" transform="translate(-562.448 135.461)" fill-rule="evenodd"/>
    <path id="Path_42" data-name="Path 42" d="M1949.72,159.15a2.209,2.209,0,0,0,.659,1.912c1.121,1.055,1.846,1.319,1.319.4-.2-.33.066-.725.594-.989,1.517-.528,1.187-1.517-.594-1.846C1950.709,158.424,1949.918,158.622,1949.72,159.15Z" transform="translate(-564.667 129.903)" fill-rule="evenodd"/>
    <path id="Path_43" data-name="Path 43" d="M1891.15,197.325c0,2.11.989,3.429,2.242,2.968,1.055-.4.857-1.912-.462-3.627C1891.941,195.413,1891.15,195.742,1891.15,197.325Z" transform="translate(-544.741 117.183)" fill-rule="evenodd"/>
    <path id="Path_44" data-name="Path 44" d="M723.532,204.88a3.692,3.692,0,0,0-1.451,4.682c.725,1.978,2.9,2.374,4.88.791,2.044-1.583,2.11-4.089.2-5.408C725.378,203.627,725.246,203.627,723.532,204.88Z" transform="translate(-146.506 114.442)" fill-rule="evenodd"/>
    <path id="Path_45" data-name="Path 45" d="M1654.608,238.322a2.668,2.668,0,0,0-.462,1.715c0,1.253.066,1.319,1.319.132a4.078,4.078,0,0,0,1.319-1.781C1656.784,237.728,1655.2,237.663,1654.608,238.322Z" transform="translate(-464.027 102.894)" fill-rule="evenodd"/>
    <path id="Path_46" data-name="Path 46" d="M1941.141,267.784c.462.528.989.791,1.121.725.33-.4-.659-1.649-1.319-1.649C1940.614,266.861,1940.68,267.257,1941.141,267.784Z" transform="translate(-561.628 93.017)" fill-rule="evenodd"/>
    <ellipse id="Ellipse_4" data-name="Ellipse 4" cx="0.989" cy="0.659" rx="0.989" ry="0.659" transform="translate(1387.958 360.538)"/>
    <path id="Path_47" data-name="Path 47" d="M1593.945,339.652c-.989.989-1.055,3.825-.132,3.825.4,0,1.055-.791,1.517-1.846a5.936,5.936,0,0,1,1.451-2.242c.33-.264.066-.528-.659-.528a3.365,3.365,0,0,0-2.176.791Z" transform="translate(-443.261 68.498)" fill-rule="evenodd"/>
    <path id="Path_48" data-name="Path 48" d="M1931.6,351.52c-.2.33-.066.659.264.659a.722.722,0,0,0,.725-.659c0-.4-.132-.659-.264-.659C1932.13,350.861,1931.8,351.125,1931.6,351.52Z" transform="translate(-558.485 64.411)" fill-rule="evenodd"/>
    <path id="Path_49" data-name="Path 49" d="M1895.15,361.52a.722.722,0,0,0,.725.659c.33,0,.462-.33.264-.659-.2-.4-.528-.659-.725-.659C1895.282,360.861,1895.15,361.125,1895.15,361.52Z" transform="translate(-546.103 61.006)" fill-rule="evenodd"/>
    <path id="Path_50" data-name="Path 50" d="M1614.611,372.688a8.759,8.759,0,0,0-5.737,10.749,12.252,12.252,0,0,0,3.166,4.418c2.44,2.176,2.572,2.176,8.968,1.055,6.529-1.121,7.254-10.419,1.121-14.508C1619.03,372.358,1617.117,371.962,1614.611,372.688Z" transform="translate(-448.497 57.093)" fill-rule="evenodd"/>
    <path id="Path_51" data-name="Path 51" d="M1698.609,397.326a2.066,2.066,0,0,0,.594,3.1c1.847.725,2.9.4,2.9-.791C1702.1,397.59,1699.8,396.073,1698.609,397.326Z" transform="translate(-479.012 48.743)" fill-rule="evenodd"/>
    <path id="Path_52" data-name="Path 52" d="M1715.715,399.638a3.943,3.943,0,0,1-1.978.923,1.83,1.83,0,0,0-1.451,1.451c-.2,1.055-.066,1.121.462.264.989-1.385.923-.264-.066,1.385-.725,1.121-.659,1.517,0,1.715.4.2.66.594.462.857-.725,1.187,2.9,2.77,5.276,2.374,2.638-.528,2.7-.594,3.231-3.693a4.235,4.235,0,0,0-.725-3.759C1719.54,399.44,1716.7,398.648,1715.715,399.638Z" transform="translate(-483.787 47.948)" fill-rule="evenodd"/>
    <path id="Path_53" data-name="Path 53" d="M1522.629,403.338a1.457,1.457,0,0,0,.659,2.44c1.583.593,2.572-.594,1.517-1.912C1523.882,402.811,1523.289,402.613,1522.629,403.338Z" transform="translate(-419.097 46.687)" fill-rule="evenodd"/>
    <path id="Path_54" data-name="Path 54" d="M1498.474,404.849a1.615,1.615,0,0,0,1.451,2.374c.659,0,.923-.528.791-1.451C1500.452,404.058,1499,403.4,1498.474,404.849Z" transform="translate(-410.966 46.297)" fill-rule="evenodd"/>
    <path id="Path_55" data-name="Path 55" d="M1773.475,419.155c-1.846,1.846-1.714,5.408.264,7.65,2.9,3.429,8.969,1.715,9.826-2.77.33-1.978-.989-3.957-2.176-3.231-.659.4-.791.264-.462-.462C1781.917,417.7,1775.85,416.781,1773.475,419.155Z" transform="translate(-504.222 41.619)" fill-rule="evenodd"/>
    <path id="Path_56" data-name="Path 56" d="M1866.616,457.52a.8.8,0,0,0,1.055.33c.923-.593.726-.989-.461-.989C1866.682,456.861,1866.418,457.191,1866.616,457.52Z" transform="translate(-536.363 28.313)" fill-rule="evenodd"/>
    <path id="Path_57" data-name="Path 57" d="M-113.577,483.392c-.594,2.44-.132,3.825,1.517,4.418,1.781.659,3.5-.791,3.5-2.968C-108.565,481.677-112.785,480.424-113.577,483.392Z" transform="translate(138.047 19.851)" fill-rule="evenodd"/>
    <path id="Path_58" data-name="Path 58" d="M1797.58,486.4c-1.649,1.583.923,4.616,3.165,3.759,1.78-.725.989-3.759-1.055-4.023A3.05,3.05,0,0,0,1797.58,486.4Z" transform="translate(-512.697 18.362)" fill-rule="evenodd"/>
    <path id="Path_59" data-name="Path 59" d="M1819.6,489.52c-.2.33-.066.659.264.659a.722.722,0,0,0,.725-.659c0-.4-.132-.659-.264-.659C1820.13,488.861,1819.8,489.125,1819.6,489.52Z" transform="translate(-520.344 17.416)" fill-rule="evenodd"/>
    <path id="Path_60" data-name="Path 60" d="M-86.225,560.313c-1.319,1.385-2.308,4.946-1.715,6.463.725,1.912,4.089,3.759,5.737,3.165,3.891-1.385,4.88-6.265,1.781-8.7C-82.137,559.851-85.3,559.39-86.225,560.313Z" transform="translate(129.292 -6.754)" fill-rule="evenodd"/>
    <ellipse id="Ellipse_5" data-name="Ellipse 5" cx="0.659" cy="0.989" rx="0.659" ry="0.989" transform="translate(81.579 568.925)"/>
    <path id="Path_61" data-name="Path 61" d="M-129,651.8a1.706,1.706,0,0,0-.066,2.308,2.153,2.153,0,0,0,1.883,1.333,2.153,2.153,0,0,0,2.008-1.135,2.294,2.294,0,0,0-.758-3.014A2.294,2.294,0,0,0-129,651.8Z" transform="translate(143.377 -37.773)" fill-rule="evenodd"/>
    <path id="Path_62" data-name="Path 62" d="M907.66,988.371c-.4.132-.659.594-.4.923.2.33-.2.594-.791.594-.659,0-.923.2-.725.462.264.2-.2.725-.989,1.121-1.781.923-2.968,4.155-1.912,5.21a6.714,6.714,0,0,0,3.5.725c2.7-.132,2.7-.066.857.659l-1.912.791,2.44.066c2.176.066,2.44-.132,2.44-1.517s.33-1.715,1.715-1.517a1.457,1.457,0,0,0,.989-.857c.462-.659.594-.659.594.132.066.594.4.33.923-.659C916.365,990.943,911.749,986.722,907.66,988.371Z" transform="translate(-208.042 -152.566)" fill-rule="evenodd"/>
    <path id="Path_63" data-name="Path 63" d="M-15.247,1174.9c-2.968,1.649-3.1,4.616-.33,7.056,1.715,1.517,5.21,1.517,6.595,0a4.657,4.657,0,0,0,1.113-3.456,4.657,4.657,0,0,0-1.706-3.2C-11.62,1173.709-12.807,1173.577-15.247,1174.9Z" transform="translate(105.267 -215.905)" fill-rule="evenodd"/>
    <path id="Path_64" data-name="Path 64" d="M47.374,1188.139c-3.957,2.374-5.144,5.8-3.5,9.562,2.242,4.814,11.474,4.023,13.321-1.121.989-2.7.791-4.616-.594-6.726C54.562,1186.754,50.8,1186.029,47.374,1188.139Z" transform="translate(84.587 -220.312)" fill-rule="evenodd"/>
    <path id="Path_65" data-name="Path 65" d="M156.151,1200.849c0,.593.4.791.989.593.528-.264.989-.659.989-.989s-.462-.594-.989-.594A1.014,1.014,0,0,0,156.151,1200.849Z" transform="translate(46.108 -224.713)" fill-rule="evenodd"/>
    <path id="Path_66" data-name="Path 66" d="M34.834,1234.7c-4.946,2.836-4.616,8.9.594,10.222,1.649.4,6.331-1.385,6.331-2.44,0-.33.594-.594,1.319-.594,1.978,0,1.649-2.044-.791-4.814C39.911,1234.433,37.01,1233.51,34.834,1234.7Z" transform="translate(88.621 -236.403)" fill-rule="evenodd"/>
    <path id="Path_67" data-name="Path 67" d="M58.063,1237.978a12.924,12.924,0,0,0-3.5,2.572l-1.517,1.649,1.517,1.517a23.02,23.02,0,0,1,2.572,3.231l1.055,1.583,2.836-1.253c3.891-1.715,5.144-5.407,2.836-8.111C62.217,1237.318,60.437,1236.989,58.063,1237.978Z" transform="translate(81.218 -237.508)" fill-rule="evenodd"/>
    <path id="Path_68" data-name="Path 68" d="M55.465,1256.948c-.528.528-1.978,1.846-3.1,2.9-2.638,2.242-2.77,4.286-.528,6.792,2.44,2.572,5.539,2.44,8.7-.462,2.308-2.044,2.374-2.308,1.583-4.155-.857-2.11-4.286-6.2-5.144-6.067a3.569,3.569,0,0,0-1.517.989Z" transform="translate(82.167 -243.816)" fill-rule="evenodd"/>
    <path id="Path_69" data-name="Path 69" d="M80.1,1267.459a13.863,13.863,0,0,0-3.1,2.374c-1.517,1.517-1.846,2.44-1.846,4.946,0,2.77.264,3.429,2.044,4.88a7.4,7.4,0,0,0,3.1,1.714c1.846,0,6.2-1.385,7.056-2.242C92.956,1273.526,87.351,1264.491,80.1,1267.459Z" transform="translate(73.692 -247.535)" fill-rule="evenodd"/>
    <path id="Path_70" data-name="Path 70" d="M56.271,1287.738c-.659.528-.923,1.055-.594,1.253.923.594,3.693-.725,3.231-1.451C58.381,1286.683,57.722,1286.683,56.271,1287.738Z" transform="translate(80.372 -254.361)" fill-rule="evenodd"/>
    <path id="Path_71" data-name="Path 71" d="M195.163,1294.961c-1.055.791-1.187,1.187-.594,2.176a2.607,2.607,0,0,0,3.891.132c.4-.4.132-1.121-.725-1.912C196.548,1294.17,196.284,1294.1,195.163,1294.961Z" transform="translate(33.144 -256.902)" fill-rule="evenodd"/>
    <path id="Path_72" data-name="Path 72" d="M671.963,1354.668c-1.055,1.055-.989,2.506.132,2.506,1.187,0,2.572-1.781,2.044-2.638S672.952,1353.679,671.963,1354.668Z" transform="translate(-129.294 -277.174)" fill-rule="evenodd"/>
  </g>
</svg>
