<svg xmlns="http://www.w3.org/2000/svg" width="26" height="25.999" viewBox="0 0 26 25.999">
  <g id="dribbble_icon" opacity="0.8">
    <path id="Path_3" data-name="Path 3" d="M21.941,28.629c.108-.036.217-.068.327-.1-.208-.471-.435-.942-.672-1.408a30.221,30.221,0,0,1-8.5,1.18c0,.089-.007.175-.007.264A8.246,8.246,0,0,0,15.207,34.1l0,0A13.111,13.111,0,0,1,21.941,28.629Z" transform="translate(-8.214 -15.641)" fill="#a5a5a5"/>
    <path id="Path_4" data-name="Path 4" d="M21.058,20.75a49.83,49.83,0,0,0-3.075-4.773,8.293,8.293,0,0,0-4.572,5.785A30.7,30.7,0,0,0,21.058,20.75Z" transform="translate(-8.354 -10.309)" fill="#a5a5a5"/>
    <path id="Path_5" data-name="Path 5" d="M32.173,16.586a8.288,8.288,0,0,0-7.424-1.834,42.225,42.225,0,0,1,3.1,4.833A9.038,9.038,0,0,0,32.173,16.586Z" transform="translate(-13.768 -9.61)" fill="#a5a5a5"/>
    <path id="Path_6" data-name="Path 6" d="M24.669,14.963a.086.086,0,0,0-.028.007l.026-.007Z" transform="translate(-13.598 -9.641)" fill="#a5a5a5"/>
    <path id="Path_7" data-name="Path 7" d="M18.809,41.69l0,0c-.061-.048-.126-.091-.187-.142C18.734,41.635,18.809,41.69,18.809,41.69Z" transform="translate(-10.759 -22.338)" fill="#a5a5a5"/>
    <path id="Path_8" data-name="Path 8" d="M31.63,23.364c.193.4.378.8.551,1.2.06.145.12.287.178.429a19.265,19.265,0,0,1,5.77.269,8.247,8.247,0,0,0-1.884-5.178A10.67,10.67,0,0,1,31.63,23.364Z" transform="translate(-17.03 -12.258)" fill="#a5a5a5"/>
    <path id="Path_9" data-name="Path 9" d="M25.468,32.262a11.236,11.236,0,0,0-6.5,5.172,8.27,8.27,0,0,0,8.324,1.1,34.5,34.5,0,0,0-1.77-6.29C25.5,32.251,25.486,32.256,25.468,32.262Z" transform="translate(-11.022 -18.085)" fill="#a5a5a5"/>
    <path id="Path_10" data-name="Path 10" d="M16.722,5.157a13,13,0,1,0,13,13A13,13,0,0,0,16.722,5.157ZM25.415,21.83a9.292,9.292,0,0,1-.87,1.6,9.471,9.471,0,0,1-1.152,1.4A9.625,9.625,0,0,1,22,25.98a9.428,9.428,0,0,1-10.553,0,9.625,9.625,0,0,1-1.4-1.152,9.41,9.41,0,0,1-2.573-4.772,9.561,9.561,0,0,1,0-3.8A9.408,9.408,0,0,1,8.9,12.88a9.471,9.471,0,0,1,4.151-3.418,9.324,9.324,0,0,1,1.772-.55,9.52,9.52,0,0,1,3.8,0,9.347,9.347,0,0,1,1.772.55,9.459,9.459,0,0,1,1.6.871,9.646,9.646,0,0,1,1.4,1.151,9.5,9.5,0,0,1,1.152,1.4,9.381,9.381,0,0,1,1.42,3.377,9.458,9.458,0,0,1,0,3.8A9.3,9.3,0,0,1,25.415,21.83Z" transform="translate(-3.722 -5.157)" fill="#a5a5a5"/>
    <path id="Path_11" data-name="Path 11" d="M33.9,31.425a35.965,35.965,0,0,1,1.613,5.917,8.284,8.284,0,0,0,3.549-5.557A12.023,12.023,0,0,0,33.9,31.425Z" transform="translate(-18.078 -17.608)" fill="#a5a5a5"/>
  </g>
</svg>
