<svg xmlns="http://www.w3.org/2000/svg" width="26" height="26" viewBox="0 0 26 26">
  <g id="linkedin_icon" opacity="0.8">
    <path id="Path_16" data-name="Path 16" d="M32.842,28.472A2.05,2.05,0,0,0,30.981,29.5v-.88H28.915c.027.582,0,6.215,0,6.215h2.066V31.362a1.409,1.409,0,0,1,.068-.5,1.131,1.131,0,0,1,1.06-.756c.747,0,1.046.57,1.046,1.405v3.326h2.066V31.268C35.221,29.36,34.2,28.472,32.842,28.472ZM30.98,29.52h-.013a.241.241,0,0,0,.013-.021Z" transform="translate(-17.477 -17.267)" fill="#a5a5a5"/>
    <rect id="Rectangle_11" data-name="Rectangle 11" width="2.066" height="6.215" transform="translate(8.139 11.353)" fill="#a5a5a5"/>
    <path id="Path_17" data-name="Path 17" d="M20.174,7.174a13,13,0,1,0,13,13A13.015,13.015,0,0,0,20.174,7.174Zm6.894,18.88a1.013,1.013,0,0,1-1.026,1H14.218a1.013,1.013,0,0,1-1.025-1V14.092a1.013,1.013,0,0,1,1.025-1H26.042a1.014,1.014,0,0,1,1.026,1Z" transform="translate(-7.174 -7.174)" fill="#a5a5a5"/>
    <path id="Path_18" data-name="Path 18" d="M23.63,22.951A1.077,1.077,0,1,0,23.6,25.1h.013a1.077,1.077,0,1,0,.014-2.147Z" transform="translate(-14.445 -14.679)" fill="#a5a5a5"/>
  </g>
</svg>
