<svg xmlns="http://www.w3.org/2000/svg" width="950.918" height="201.668" viewBox="0 0 950.918 201.668">
  <g id="Group_11" data-name="Group 11" transform="translate(-487.273 -455.6)">
    <path id="Path_73" data-name="Path 73" d="M61.92,9.36c11.88,0,41.22-18.18,57.78-28.98,2.88-1.8-.54-2.88-1.44-2.34C94.32-7.38,71.1,6.3,62.64,6.3c-1.62,0-1.8-2.7.54-13.5,1.8-8.28,2.52-13.5,2.52-15.48s-1.08-3.96-3.06-3.96c-2.88,0-9.36,6.48-16.02,14.58a45.139,45.139,0,0,1-3.78,4.14c-2.34,2.88-3.42,2.16-2.88-.72l1.62-8.82C43.74-29.34,45-36.9,39.78-37.98c-3.96-.72-8.28,3.78-17.46,18.9C14.94-6.66,10.98.72,11.34-1.98c.9-5.04,2.7-13.5,3.24-17.64.36-3.96-4.5-3.96-4.68-.36A229.8,229.8,0,0,1,7.38,4.32c-.36,2.52.18,3.96,1.8,3.96,2.88,0,5.22-8.1,16.02-25.92C35.1-33.48,37.44-35.28,39.42-34.2c1.44.9,1.08,6.66-.9,16.56-2.34,12.6-1.8,14.76.18,15.12,2.16.36,4.86-1.44,10.62-8.46C54-16.74,60.3-23.04,61.56-22.32c.9.36.54,1.98-1.8,14.94C57.6,4.86,57.24,9.36,61.92,9.36ZM123.84-19.8c0-1.62-2.7-3.6-4.86-2.7-.9.36-.36,2.52-.36,3.6.18.72-.72,7.92-.72,9.54,0,7.38,1.8,10.08,3.96,10.08,5.58,0,15.66-10.98,26.28-28.98,9.36-15.84,19.08-43.56,26.1-56.7,3.6-6.66-.9-4.32-2.34-1.44-8.28,15.48-17.46,41.22-25.74,55.08C134.82-12.42,125.1-1.8,121.86-1.8c-.18,0-1.26-1.8-.18-7.74C121.86-10.98,123.84-18.54,123.84-19.8ZM126.9-45c.9,0,3.6-2.88,3.6-4.5a2.727,2.727,0,0,0-2.34-2.7c-.9,0-3.06,1.98-3.06,3.24C125.1-47.88,125.82-45,126.9-45Zm27.9,90c1.8-.18-1.08-2.16.36-18.72,3.06-33.12,10.98-70.02,13.86-83.52,3.42-16.02,8.28-33.84,8.64-34.74,1.98-4.32,4.32-8.1,4.86-10.26.54-1.62.18-5.94-1.44-5.94-2.88,0-7.38,9.72-16.2,48.6-5.76,25.02-10.98,52.56-13.14,84.42C150.66,38.34,152.46,45.18,154.8,45ZM208.62.9c-4.68,0-7.92-2.34-7.92-5.4,0-4.14,1.8-7.38,1.8-8.82,0-1.26-1.62-1.62-2.34-1.62-2.16,0-6.66,2.52-13.5,5.76-5.04,2.52-8.1,3.78-9.72,3.78-.54,0-.72-.18-.72-.54,0-1.44,3.6-6.66,8.28-9.72,5.04-3.42,8.64-4.86,10.44-4.86,1.98,0,2.52,3.6,4.32,3.6s-.72-6.48-4.86-6.48c-3.06,0-6.66.9-12.42,5.4-6.84,5.04-9,9.72-9,13.14,0,1.08,1.8,2.7,4.32,2.7,1.8,0,7.56-2.34,12.78-5.4,5.76-3.06,6.84-3.24,7.38-2.7.36.36-.36,2.16-.36,5.94s2.52,9,11.34,9c11.88,0,50.04-17.28,61.92-25.02,3.06-1.98-.72-2.16-1.62-1.62C257.76-16.02,221.22.9,208.62.9ZM283.5-22.32a22.9,22.9,0,0,0-6.84-1.26c-14.58,0-25.38,17.64-25.38,32.04,0,5.76,3.06,9.9,5.94,9.9,3.42,0,6.12-4.14,27.36-37.44l6.12,2.7c1.44.72,2.34-.54,1.26-1.62a28.105,28.105,0,0,0-5.76-3.42c7.02-11.16,14.22-23.22,20.7-34.2-5.76,17.1-11.88,36.54-17.46,57.24-8.82,32.76-10.26,47.34-7.56,48.78,1.98,1.08,3.96-1.8,2.52-2.16-1.62-.36-.9-13.5,7.92-44.82,8.1-28.98,17.46-55.26,24.84-77.4,7.02-12.78,11.7-21.6,11.88-22.5.36-1.8-2.34-5.4-3.96-5.4s-2.34,2.34-9.54,21.78l-4.32,11.7C303.48-55.62,292.86-38.34,283.5-22.32ZM257.22,15.12c-1.62,0-1.8-3.78-1.8-6.84,0-11.7,9.72-28.44,23.22-28.44a19.834,19.834,0,0,1,3.24.36C275.4-8.82,259.2,15.12,257.22,15.12ZM416.34,9.36c11.88,0,41.22-18.18,57.78-28.98,2.88-1.8-.54-2.88-1.44-2.34C448.74-7.38,425.52,6.3,417.06,6.3c-1.62,0-1.8-2.7.54-13.5,1.8-8.28,2.52-13.5,2.52-15.48s-1.08-3.96-3.06-3.96c-2.88,0-9.36,6.48-16.02,14.58a45.135,45.135,0,0,1-3.78,4.14c-2.34,2.88-3.42,2.16-2.88-.72L396-17.46c2.16-11.88,3.42-19.44-1.8-20.52-3.96-.72-8.28,3.78-17.46,18.9C369.36-6.66,365.4.72,365.76-1.98c.9-5.04,2.7-13.5,3.24-17.64.36-3.96-4.5-3.96-4.68-.36a229.8,229.8,0,0,1-2.52,24.3c-.36,2.52.18,3.96,1.8,3.96,2.88,0,5.22-8.1,16.02-25.92,9.9-15.84,12.24-17.64,14.22-16.56,1.44.9,1.08,6.66-.9,16.56-2.34,12.6-1.8,14.76.18,15.12,2.16.36,4.86-1.44,10.62-8.46,4.68-5.76,10.98-12.06,12.24-11.34.9.36.54,1.98-1.8,14.94C412.02,4.86,411.66,9.36,416.34,9.36ZM460.98-7.38c-7.2,14.04-5.04,27.9,3.06,27.9,8.28,0,21.06-14.04,22.68-31.32a8.072,8.072,0,0,0,1.98-.18c10.62-.9,31.14-7.56,35.1-9.18.9-.36,0-2.34-1.26-1.8-7.56,2.7-24.3,7.02-33.3,7.74a11.072,11.072,0,0,1-2.34.18v-.54c0-11.34-4.86-18.72-12.78-18.72s-13.86,8.1-10.62,14.94a9.9,9.9,0,0,0,2.34,3.06A46.1,46.1,0,0,0,460.98-7.38Zm2.34,24.66c-3.42,0-5.58-10.62,1.26-23.94a60.589,60.589,0,0,1,4.32-6.66c3.78,1.8,9,2.52,13.86,2.52C481.14,5.04,471.42,17.28,463.32,17.28Zm12.06-38.52c0-.72-.54-1.26-1.62-1.26-.54,0-2.88,1.62-5.58,4.5a9.046,9.046,0,0,1-1.44-2.16c-2.52-5.4,1.98-10.08,6.84-10.08,5.04,0,9.54,5.04,9.54,14.4v1.8a30.716,30.716,0,0,1-12.06-2.16C473.4-19.08,475.38-20.88,475.38-21.24Zm54.9,12.42c.9,0,1.62-.9,1.8-1.98,0-1.26,0-1.8-1.08-6.12-1.26-4.32-3.06-7.2-5.58-7.2-3.06,0-6.48,4.5-10.8,11.88s-7.56,15.12-8.1,20.16c-.54,4.68,1.08,7.02,3.06,7.02,2.16,0,12.96-8.1,25.56-22.32-1.26,5.58-2.7,12.6-4.86,21.78-5.22,22.5-7.02,31.32-9,46.08-1.8,13.32-.9,18,1.44,18,1.98,0,.54-3.42,2.16-15.66,1.8-13.86,4.68-25.92,9.54-46.08C538.38.72,540.9-10.44,543.24-18c1.26-3.96,1.62-4.86.54-6.84-.9-1.8-1.62-2.88-2.7-2.88-1.98,0-2.16,1.44-4.5,12.96A141.746,141.746,0,0,1,525.06-.9c-8.1,8.1-13.32,12.42-14.94,12.42-.36,0-.9-.54-.54-3.06.36-3.78,3.24-10.26,7.56-17.64,5.22-9.18,9-10.98,9.9-10.98.9.18,1.26,1.08,2.16,3.78a14.543,14.543,0,0,1,.72,5.4C529.92-10.62,529.02-9,530.28-8.82ZM587.34.9c-4.68,0-7.92-2.34-7.92-5.4,0-4.14,1.8-7.38,1.8-8.82,0-1.26-1.62-1.62-2.34-1.62-2.16,0-6.66,2.52-13.5,5.76-5.04,2.52-8.1,3.78-9.72,3.78-.54,0-.72-.18-.72-.54,0-1.44,3.6-6.66,8.28-9.72,5.04-3.42,8.64-4.86,10.44-4.86,1.98,0,2.52,3.6,4.32,3.6s-.72-6.48-4.86-6.48c-3.06,0-6.66.9-12.42,5.4-6.84,5.04-9,9.72-9,13.14,0,1.08,1.8,2.7,4.32,2.7,1.8,0,7.56-2.34,12.78-5.4,5.76-3.06,6.84-3.24,7.38-2.7.36.36-.36,2.16-.36,5.94s2.52,9,11.34,9c11.88,0,50.04-17.28,61.92-25.02,3.06-1.98-.72-2.16-1.62-1.62C636.48-16.02,599.94.9,587.34.9Zm78.84,3.42c-3.42,12.24-5.58,28.26,2.16,28.26,7.56,0,21.96-19.98,29.34-35.1,1.62-3.06-1.44-1.98-1.98-1.08-7.2,12.06-19.26,32.4-27,32.4-2.88,0-3.78-8.64.36-22.68,7.74-27.72,20.34-63.9,28.08-86.94,7.92-15.12,13.32-26.28,13.5-27.18.36-1.8-2.34-5.4-3.96-5.4s-2.34,2.34-9.54,21.78c-1.62,4.5-3.6,9.72-5.58,15.66-8.64,15.84-20.52,36.9-29.7,52.92a29.655,29.655,0,0,0-5.76-.72c-14.4,0-25.2,14.58-25.2,28.8,0,5.94,3.06,10.26,5.94,10.26,3.96,0,11.34-10.98,24.48-31.86l1.8-2.88a42.778,42.778,0,0,1,5.22,2.34c1.62.54,2.52-.72,1.44-1.8a17.516,17.516,0,0,0-5.04-3.06c6.84-11.34,14.22-24.66,21.06-37.26C678.96-38.88,671.58-14.94,666.18,4.32ZM658.8-17.82c-4.86,8.28-19.08,29.88-21.96,29.88-1.8,0-1.8-4.14-1.8-7.2,0-11.7,9.72-25.02,23.22-25.02a5.549,5.549,0,0,1,1.8.18Zm66.96-4.5a22.9,22.9,0,0,0-6.84-1.26c-14.58,0-25.38,17.64-25.38,32.04,0,5.76,3.06,9.9,5.94,9.9,3.42,0,6.12-4.14,27.36-37.44l6.12,2.7c1.44.72,2.34-.54,1.26-1.62a28.1,28.1,0,0,0-5.76-3.42c7.02-11.16,14.22-23.22,20.7-34.2-5.76,17.1-11.88,36.54-17.46,57.24-8.82,32.76-10.26,47.34-7.56,48.78,1.98,1.08,3.96-1.8,2.52-2.16-1.62-.36-.9-13.5,7.92-44.82,8.1-28.98,17.46-55.26,24.84-77.4,7.02-12.78,11.7-21.6,11.88-22.5.36-1.8-2.34-5.4-3.96-5.4S765-99.54,757.8-80.1l-4.32,11.7C745.74-55.62,735.12-38.34,725.76-22.32ZM699.48,15.12c-1.62,0-1.8-3.78-1.8-6.84,0-11.7,9.72-28.44,23.22-28.44a19.835,19.835,0,0,1,3.24.36C717.66-8.82,701.46,15.12,699.48,15.12ZM787.32.9c-4.68,0-7.92-2.34-7.92-5.4,0-4.14,1.8-7.38,1.8-8.82,0-1.26-1.62-1.62-2.34-1.62-2.16,0-6.66,2.52-13.5,5.76-5.04,2.52-8.1,3.78-9.72,3.78-.54,0-.72-.18-.72-.54,0-1.44,3.6-6.66,8.28-9.72,5.04-3.42,8.64-4.86,10.44-4.86,1.98,0,2.52,3.6,4.32,3.6s-.72-6.48-4.86-6.48c-3.06,0-6.66.9-12.42,5.4-6.84,5.04-9,9.72-9,13.14,0,1.08,1.8,2.7,4.32,2.7,1.8,0,7.56-2.34,12.78-5.4,5.76-3.06,6.84-3.24,7.38-2.7.36.36-.36,2.16-.36,5.94s2.52,9,11.34,9c11.88,0,50.04-17.28,61.92-25.02,3.06-1.98-.72-2.16-1.62-1.62C836.46-16.02,799.92.9,787.32.9ZM899.28,9.36c11.88,0,41.22-18.18,57.78-28.98,2.88-1.8-.54-2.88-1.44-2.34C931.68-7.38,908.46,6.3,900,6.3c-1.62,0-1.8-2.7.54-13.5,1.8-8.28,2.52-13.5,2.52-15.48s-1.08-3.96-3.06-3.96c-2.88,0-9.36,6.48-16.02,14.58a45.148,45.148,0,0,1-3.78,4.14c-2.34,2.88-3.42,2.16-2.88-.72l1.62-8.82c2.16-11.88,3.42-19.44-1.8-20.52-3.96-.72-8.28,3.78-17.46,18.9C852.3-6.66,848.34.72,848.7-1.98c.9-5.04,2.7-13.5,3.24-17.64.36-3.96-4.5-3.96-4.68-.36a229.814,229.814,0,0,1-2.52,24.3c-.36,2.52.18,3.96,1.8,3.96,2.88,0,5.22-8.1,16.02-25.92,9.9-15.84,12.24-17.64,14.22-16.56,1.44.9,1.08,6.66-.9,16.56-2.34,12.6-1.8,14.76.18,15.12,2.16.36,4.86-1.44,10.62-8.46,4.68-5.76,10.98-12.06,12.24-11.34.9.36.54,1.98-1.8,14.94C894.96,4.86,894.6,9.36,899.28,9.36Z" transform="translate(480 569)" fill="#292929"/>
    <path id="Path_74" data-name="Path 74" d="M7.92-4.92a8.317,8.317,0,0,0-1.68.24,4.216,4.216,0,0,0,.9-2.44,1.572,1.572,0,0,0-.66-1.36,1.665,1.665,0,0,0-1.56.06A4.269,4.269,0,0,0,3.12-6.6q.72-3.48.54-3.54T2.8-8.32Q2.12-6.44,1.12-3.38T-.8,2.48q-.76,2.28-1.74,4.98t-1.68,4.68a17.591,17.591,0,0,0-.8,2.68q-.1.7.86-1.02-.04.28.74-1.46t1.84-4.22Q-.52,5.64.5,3.1T2-.76a2.5,2.5,0,0,0,.74-.34q.5-.3,1.08-.66t1.1-.72A5.687,5.687,0,0,1,5.8-3q.28-.12,1.08-.44a14.209,14.209,0,0,0,1.4-.64q.6-.32.68-.58T7.92-4.92ZM6.08-6.76A4.174,4.174,0,0,1,5.3-5.12,19.029,19.029,0,0,1,4.02-3.56q-.66.72-1.12,1.3t-.34.82q-.2.24-.4.44.08-.24.48-1.4a23.072,23.072,0,0,1,.98-2.38,13.233,13.233,0,0,1,1.22-2.1q.64-.88,1.24-.6A.6.6,0,0,1,6.08-6.76Zm9.44,2a5.267,5.267,0,0,0-1.04.72q-.68.56-1.4,1.16T11.36-1.36l-.68.4a19.856,19.856,0,0,0,1.1-3.08A4.521,4.521,0,0,0,11.86-6q-.18-.84-1.42-.48-.84.28-.8,0a2.32,2.32,0,0,1,.32-.76,6.89,6.89,0,0,0,.48-1A.538.538,0,0,0,10.16-9q-.24-.12-.94.58A3.779,3.779,0,0,1,8.2-7.6q-.84.32-.5.72a1.316,1.316,0,0,0,1.06.4q0,1.12.52,1.22a3.668,3.668,0,0,0,1,.06.734.734,0,0,1,.66.18q.18.22-.5,1.62A8.874,8.874,0,0,0,9.4-.46q-.04.9.66.84A4.462,4.462,0,0,0,12.04-.66,21.7,21.7,0,0,0,15-3.56a9.89,9.89,0,0,0,.6-.88Q15.92-4.96,15.52-4.76Zm7.44-.8a8.633,8.633,0,0,1-1.54.44,8.621,8.621,0,0,1-1.5.24v-.96a3.8,3.8,0,0,0-.08-.88q-.08-.32-.2-.18a4.182,4.182,0,0,0-.36,1.1q.12-.72-.18-.56a1.829,1.829,0,0,0-.62.7,3.92,3.92,0,0,0-.46,1.26,1.167,1.167,0,0,0,.34,1.16q-.24.32-.86,1.28T16.36-1h0q-.56.04-.48-1.42a11.824,11.824,0,0,1,.64-3.12,8.524,8.524,0,0,1,1.52-2.8,1.646,1.646,0,0,1,2.24-.46q.6.4.66.28t-.2-.4a3.023,3.023,0,0,0-.78-.56,1.546,1.546,0,0,0-1-.2A4.265,4.265,0,0,0,15.88-7.1a11.379,11.379,0,0,0-1.16,4.24A4.5,4.5,0,0,0,15.38.2q.78,1,2.46-.88A21.618,21.618,0,0,0,19.32-3a9.55,9.55,0,0,0,1.32-.66q.96-.54,1.8-1.1a9.947,9.947,0,0,0,1.16-.86Q23.92-5.92,22.96-5.56Zm8.28-5.04q-.84,2.48-1.16,3.52a4.232,4.232,0,0,1-.76,1.54,4.364,4.364,0,0,1-1.3.94q-.86.44-2.78,1.68-1.12.8-1.28.58t.22-.88a9.627,9.627,0,0,1,1.12-1.5A6.557,6.557,0,0,1,26.76-6a11.461,11.461,0,0,1,.98-.66q.5-.3.8-.52t.24-.28a1.768,1.768,0,0,0-.74.06,6.3,6.3,0,0,0-3.78,1.92,5.078,5.078,0,0,0-1.42,2.72,1.388,1.388,0,0,0,.92,1.62q1.04.38,3.32-1.38L29.16-4.2q-2.4,7.48-2.96,9.86t.14.96q.7-1.42,2.38-5.94t3.8-10.88q5.76-17.52,5.06-17.72T31.24-10.6Zm11,6.52q-.56.52-1.22,1.1a2.5,2.5,0,0,1-1.16.66q-.5.08-.76-.66a7.829,7.829,0,0,1-.02-2.9,7.306,7.306,0,0,1,.1-1.42q.1-.46-.1-.26,0-.08-.64.86T36.98-4.64q-.82,1.12-1.56,2.02t-.98.78q-.24-.08-.22-1.26a20.844,20.844,0,0,1,.22-2.58q.2-1.4.46-2.56t.46-1.28Q35.04-10,34.2-7.7a26.649,26.649,0,0,0-1.24,4.62,5.858,5.858,0,0,0,.08,3.3Q33.52,1.2,36-1.8a17.455,17.455,0,0,0,1.84-3.24,8.7,8.7,0,0,0,.1,3.34q.34.98,1.06.98a3,3,0,0,0,1.76-.88,16.424,16.424,0,0,0,2.16-2.28q.28-.4.92-1.18t.52-.9q-.2-.16-.8.54A13.879,13.879,0,0,1,42.24-4.08Zm7.4,3.12q.72-.68,1.98-2.02t2.02-2.3q.76-.96.5-.98A11.931,11.931,0,0,0,51.6-4.32q-.28.28-1.34,1.28A13.993,13.993,0,0,1,48-1.3a5.045,5.045,0,0,1-2.18.82q-.98.08-1.06-1.48a2.912,2.912,0,0,1,.36-1.54,7.446,7.446,0,0,1,1.16-1.76,5.574,5.574,0,0,1,1.54-1.26,1.52,1.52,0,0,1,1.54-.04,1.306,1.306,0,0,1,.54.54q.14.3.14-.26A1.135,1.135,0,0,0,48.6-7.44a5.634,5.634,0,0,0-2.68,1.18,7.536,7.536,0,0,0-2.18,2.6,3.177,3.177,0,0,0,.02,3.14A2.23,2.23,0,0,0,45.04.7a2.978,2.978,0,0,0,1.64.06A5.519,5.519,0,0,0,48.3.08,7.277,7.277,0,0,0,49.64-.96ZM60.2-17.92q.32-.8.78-2.16t.86-2.68q.4-1.32.64-2.34t.12-1.1q-.24-.08-.6.7t-.82,2.02q-.46,1.24-.96,2.76t-.98,2.96q-4.68.48-6.5.84t-1.52.56a6.833,6.833,0,0,0,2.32.2q2.02,0,5.14-.24-1.92,5.28-3.56,10.28A89.111,89.111,0,0,0,52.36,4.64a9.557,9.557,0,0,0-.42,3.28q.18.64.3.64.72-2.48,1.16-4.1t.9-3.2q.46-1.58.74-2.34Q56.48-5.36,57.56-9t2.24-7.52q7.96-1.04,8.38-1.58T60.2-17.92ZM77.68-10.6q-.84,2.48-1.16,3.52a4.232,4.232,0,0,1-.76,1.54,4.364,4.364,0,0,1-1.3.94q-.86.44-2.78,1.68-1.12.8-1.28.58t.22-.88a9.627,9.627,0,0,1,1.12-1.5A6.557,6.557,0,0,1,73.2-6a11.461,11.461,0,0,1,.98-.66q.5-.3.8-.52t.24-.28a1.768,1.768,0,0,0-.74.06A6.3,6.3,0,0,0,70.7-5.48a5.078,5.078,0,0,0-1.42,2.72,1.388,1.388,0,0,0,.92,1.62q1.04.38,3.32-1.38L75.6-4.2q-2.4,7.48-2.96,9.86t.14.96q.7-1.42,2.38-5.94t3.8-10.88q5.76-17.52,5.06-17.72T77.68-10.6ZM86.8-2.2a10.379,10.379,0,0,0,1.66-2.08,2.287,2.287,0,0,0,.46-1.48,23.384,23.384,0,0,1-3.58,3.6,4.253,4.253,0,0,1-3.26,1.08q-1.76-.28-1.1-1.94a11.411,11.411,0,0,1,1.86-3.1,7.468,7.468,0,0,1,1.98-1.84q.78-.4-.66,1.84a5.564,5.564,0,0,1-.7,1.04q-.54.68-.94,1.26a2.35,2.35,0,0,0-.42.78q-.02.2.82-.44Q85.52-5.36,86-6.9t-.28-2.08q-.76-.54-2.32.26a7.99,7.99,0,0,0-3,3.56,4.968,4.968,0,0,0-.62,3.1A2.325,2.325,0,0,0,81.06-.28a3.809,3.809,0,0,0,2.56.1A7.084,7.084,0,0,0,86.8-2.2Zm4.24-1.76a8.377,8.377,0,0,0-1.12.68L89.3-4.44a6.879,6.879,0,0,1-.5-1.2,6.333,6.333,0,0,0,1.56-3.1,2.9,2.9,0,0,0-.32-2.04,1.117,1.117,0,0,0-1.3-.44q-.82.22-1.38,1.66a5.087,5.087,0,0,0-.06,3.68,26.958,26.958,0,0,0,1.5,3.32Q86.72-.88,86.64.22a1.333,1.333,0,0,0,.68,1.46,2.425,2.425,0,0,0,1.9-.06,2.4,2.4,0,0,0,1.5-1.78,3.633,3.633,0,0,0-.24-2.24,12.855,12.855,0,0,1,1.48-1q.88-.52,1.7-1l1.4-.82q.58-.34.58-.42-.12-.12-1.4.22A13.759,13.759,0,0,0,91.04-3.96ZM89.48-.48a1.3,1.3,0,0,1-.58.82,1.337,1.337,0,0,1-.76.28Q87.84.6,88,.14a5.643,5.643,0,0,1,1.36-1.58A1.354,1.354,0,0,1,89.48-.48ZM88.12-7.92A2.907,2.907,0,0,1,88.5-9.8q.38-.36.68.02a2.085,2.085,0,0,1,.26,1.34,3.634,3.634,0,0,1-.96,2.08,2.774,2.774,0,0,1-.24-.74A4.13,4.13,0,0,1,88.12-7.92Zm10.24-4.12a.537.537,0,0,1,.36.46,1.645,1.645,0,0,1-.04.8,1.832,1.832,0,0,1-.36.7.423.423,0,0,1-.52.16.546.546,0,0,1-.44-.46,1.475,1.475,0,0,1,.04-.76,2.081,2.081,0,0,1,.36-.68A.563.563,0,0,1,98.36-12.04ZM95.44.12q.72,1.4,2.5-.04a19.618,19.618,0,0,0,3.2-3.28,10.763,10.763,0,0,0,1.74-2.84q.32-1-1.84,1.28-.36.36-.9,1.02T99-2.44A10.913,10.913,0,0,1,97.76-1.3a2.607,2.607,0,0,1-1.2.58q-.24-.28.06-1.96t.54-3.08A4.95,4.95,0,0,0,97.3-7.4q-.1-.24-1.06,2.32-.32.96-.92,2.52A2.844,2.844,0,0,0,95.44.12Zm10.08-6.4a4.853,4.853,0,0,1,1.08-.58q.72-.3,1.32-.56a3.63,3.63,0,0,0,.86-.48q.26-.22-.3-.34a4.327,4.327,0,0,0-3.5.78,7.143,7.143,0,0,0-2.26,2.64,4.394,4.394,0,0,0-.44,2.84,1.865,1.865,0,0,0,1.96,1.46,1.356,1.356,0,0,0,.86-.2,2.212,2.212,0,0,0,.58-.5q.2-.26.14-.4t-.46.1q-.92.56-1.36.16a1.6,1.6,0,0,1-.44-1.24,4.407,4.407,0,0,1,.5-1.88A5.1,5.1,0,0,1,105.52-6.28Zm3.4,5.2q.2-.2.4-.38t1.08-.94a21.1,21.1,0,0,0,2.42-2.28q.46-.6-.02-.44a7.768,7.768,0,0,0-1.6.94,27.993,27.993,0,0,0-2.32,1.82q.4-2.4.54-3.92t.02-1.52q-.2-.12-.72,1.88T107.68-1.4q-.6.68-.96,1.04-1.08,1.12-2.28,2.4a23.573,23.573,0,0,0-2.16,2.66,22.044,22.044,0,0,0-1.68,2.84,8.78,8.78,0,0,0-.88,2.98q-.24,2.88,1,3.96t2.12.68a5.785,5.785,0,0,0,1.84-1.72,14.962,14.962,0,0,0,1.6-2.84,25.007,25.007,0,0,0,1.24-3.58q.52-1.94.84-3.86.12-1.2.24-1.94t.22-1.4A7.309,7.309,0,0,0,108.92-1.08ZM107.76.04q-.16.76-.28,1.46t-.26,1.54q-.14.84-.38,1.94t-.68,2.7a14.619,14.619,0,0,1-1.94,4.58,5.392,5.392,0,0,1-1.5,1.5,1.32,1.32,0,0,1-1.18-.2q-.66-.4-.62-2.68a7.763,7.763,0,0,1,.66-2.62,20.741,20.741,0,0,1,1.58-3.04,22.93,22.93,0,0,1,2.16-2.92A14.056,14.056,0,0,1,107.76.04Zm12.16-3.68q-1.08,1.08-1.1.84a3.451,3.451,0,0,1,.3-1.08,17.424,17.424,0,0,0,.6-1.96,2.23,2.23,0,0,0-.2-1.84,1.083,1.083,0,0,0-1.22-.5,4.028,4.028,0,0,0-1.46.72,9.408,9.408,0,0,0-1.32,1.2q-.6.66-.8.94.24-2.28-.2-1.76A7.75,7.75,0,0,0,113.5-5a26.867,26.867,0,0,0-.98,3.28q-.4,1.72-.16,1.76t.48-.44q.24-.48.6-1.24t.86-1.68A6.772,6.772,0,0,1,115.6-5a19.881,19.881,0,0,1,1.72-1.54,1.133,1.133,0,0,1,1.04-.22q.32.12,0,1.4t-.64,2.6a8.632,8.632,0,0,0-.3,2.14q.02.82.98.1a2.62,2.62,0,0,0,.7-.78,12.411,12.411,0,0,0,.88-1.42,4.743,4.743,0,0,0,.46-1.1Q120.52-4.2,119.92-3.64Zm7.96,1.44a10.379,10.379,0,0,0,1.66-2.08A2.286,2.286,0,0,0,130-5.76a23.385,23.385,0,0,1-3.58,3.6,4.253,4.253,0,0,1-3.26,1.08q-1.76-.28-1.1-1.94a11.411,11.411,0,0,1,1.86-3.1,7.468,7.468,0,0,1,1.98-1.84q.78-.4-.66,1.84a5.564,5.564,0,0,1-.7,1.04q-.54.68-.94,1.26a2.35,2.35,0,0,0-.42.78q-.02.2.82-.44,2.6-1.88,3.08-3.42t-.28-2.08q-.76-.54-2.32.26a7.99,7.99,0,0,0-3,3.56,4.968,4.968,0,0,0-.62,3.1,2.325,2.325,0,0,0,1.28,1.78,3.809,3.809,0,0,0,2.56.1A7.084,7.084,0,0,0,127.88-2.2Zm7.08-2.56a5.266,5.266,0,0,0-1.04.72q-.68.56-1.4,1.16T130.8-1.36l-.68.4a19.857,19.857,0,0,0,1.1-3.08A4.521,4.521,0,0,0,131.3-6q-.18-.84-1.42-.48-.84.28-.8,0a2.32,2.32,0,0,1,.32-.76,6.891,6.891,0,0,0,.48-1A.538.538,0,0,0,129.6-9q-.24-.12-.94.58a3.779,3.779,0,0,1-1.02.82q-.84.32-.5.72a1.316,1.316,0,0,0,1.06.4q0,1.12.52,1.22a3.668,3.668,0,0,0,1,.06.734.734,0,0,1,.66.18q.18.22-.5,1.62a8.873,8.873,0,0,0-1.04,2.94q-.04.9.66.84a4.462,4.462,0,0,0,1.98-1.04,21.7,21.7,0,0,0,2.96-2.9,9.892,9.892,0,0,0,.6-.88Q135.36-4.96,134.96-4.76Z" transform="translate(1082 642)" fill="#292929"/>
  </g>
</svg>
